<svg width="33" height="32" viewBox="0 0 33 32" fill="none" xmlns="http://www.w3.org/2000/svg">
<path fill-rule="evenodd" clip-rule="evenodd" d="M15.9874 1.13352C16.1435 1.04434 16.3202 0.997437 16.5 0.997437C16.6798 0.997437 16.8565 1.04434 17.0126 1.13352L31.4815 9.40144C31.6396 9.49179 31.7711 9.62235 31.8626 9.77989C31.9541 9.93743 32.0023 10.1163 32.0023 10.2985V11.7867C32.0023 21.1543 25.7911 29.3891 16.7832 31.9604C16.5981 32.0132 16.4019 32.0132 16.2168 31.9604C11.8327 30.7078 7.97591 28.0614 5.22994 24.4214C2.48397 20.7815 0.998271 16.3463 0.99765 11.7867L0.99765 10.2985C0.997709 10.1163 1.04592 9.93743 1.13739 9.77989C1.22886 9.62235 1.36035 9.49179 1.51853 9.40144L15.9874 1.13352ZM15.6153 23.1365L24.5405 11.9769L22.9283 10.6871L15.3177 20.1973L9.927 15.7057L8.60413 17.2932L15.6153 23.1365Z" fill="white"/>
</svg>
