<svg width="42" height="45" viewBox="0 0 42 45" fill="none" xmlns="http://www.w3.org/2000/svg">
<path d="M9.75 40.5H14.25V45H9.75V40.5ZM18.75 40.5H23.25V45H18.75V40.5ZM27.75 40.5H32.25V45H27.75V40.5ZM5.25 0H36.75C37.9435 0 39.0881 0.474106 39.932 1.31802C40.7759 2.16193 41.25 3.30653 41.25 4.5V31.5C41.25 32.6935 40.7759 33.8381 39.932 34.682C39.0881 35.5259 37.9435 36 36.75 36H5.25C4.05653 36 2.91193 35.5259 2.06802 34.682C1.22411 33.8381 0.75 32.6935 0.75 31.5V4.5C0.75 3.30653 1.22411 2.16193 2.06802 1.31802C2.91193 0.474106 4.05653 0 5.25 0ZM5.25 9V31.5H36.75V9H5.25Z" fill="white"/>
</svg>
